<?xml version="1.0" standalone="no"?>
<!DOCTYPE svg PUBLIC "-//W3C//DTD SVG 20010904//EN"
 "http://www.w3.org/TR/2001/REC-SVG-20010904/DTD/svg10.dtd">
<svg version="1.0" xmlns="http://www.w3.org/2000/svg"
 width="1128.000000pt" height="1128.000000pt" viewBox="0 0 1128.000000 1128.000000"
 preserveAspectRatio="xMidYMid meet">
<metadata>
Created by potrace 1.14, written by Peter Selinger 2001-2017
</metadata>
<g transform="translate(0.000000,1128.000000) scale(0.100000,-0.100000)"
fill="#000000" stroke="none">
<path d="M5646 8843 c-3 -3 -23 -8 -44 -10 -118 -11 -258 -102 -307 -200 -11
-21 -24 -44 -29 -52 -11 -14 -15 -30 -20 -72 -1 -14 -5 -30 -8 -35 -6 -11 -2
-75 7 -124 8 -39 42 -115 65 -144 35 -44 86 -96 93 -96 5 0 21 -8 35 -18 56
-38 135 -63 217 -66 96 -4 242 47 305 108 41 38 80 85 80 96 0 5 5 10 12 10 6
0 9 3 5 6 -3 4 1 20 10 37 45 88 36 258 -19 339 -10 14 -18 30 -18 34 0 29
-162 149 -214 159 -12 2 -21 4 -21 5 0 3 -38 9 -84 15 -25 4 -48 8 -52 10 -3
3 -9 2 -13 -2z"/>
<path d="M2280 8672 c-50 -25 -80 -74 -75 -123 7 -66 29 -95 95 -125 118 -54
147 -88 124 -149 -16 -41 -101 -57 -155 -29 -17 8 -32 14 -33 12 -34 -46 -36
-51 -17 -65 17 -11 79 -26 106 -25 58 2 122 25 142 50 29 37 42 81 33 112 -5
16 -6 30 -4 30 3 0 -4 14 -16 30 -13 18 -54 47 -101 70 -93 47 -115 77 -94
127 17 40 65 52 129 31 l44 -15 10 33 10 33 -47 9 c-69 15 -112 13 -151 -6z"/>
<path d="M3351 8668 c-25 -67 -64 -156 -77 -180 -8 -16 -12 -28 -8 -28 3 0 2
-6 -4 -12 -5 -7 -22 -42 -37 -78 -15 -36 -35 -81 -43 -100 -9 -19 -17 -39 -18
-45 -2 -5 -6 -19 -9 -30 -5 -17 -1 -20 30 -20 33 1 38 5 55 43 11 23 16 42 13
42 -4 0 -2 5 4 11 10 10 106 14 194 10 10 -1 21 -17 28 -43 7 -24 17 -48 22
-54 13 -16 75 -10 70 7 -2 8 -4 19 -5 24 -1 6 -10 27 -19 49 -9 21 -17 42 -17
47 0 5 -4 17 -10 27 -5 9 -37 87 -71 172 -33 85 -63 161 -66 168 -8 19 -23 14
-32 -10z m27 -125 c-1 -5 4 -28 11 -53 7 -25 13 -46 12 -48 -1 -1 5 -15 12
-30 8 -15 17 -39 20 -53 l7 -26 -78 1 c-47 1 -76 5 -73 11 2 6 6 17 9 25 12
35 64 165 68 172 7 10 15 10 12 1z"/>
<path d="M4632 8672 c-5 -10 -8 -86 -7 -169 1 -84 -2 -153 -6 -153 -5 0 -16
12 -26 28 -10 15 -23 32 -29 37 -6 6 -55 67 -108 138 -54 70 -104 127 -112
127 -12 0 -14 -37 -12 -252 l3 -252 23 1 c12 0 26 1 32 2 6 1 9 27 7 61 -2 33
0 60 4 60 4 0 4 15 0 33 -5 25 -6 144 -2 191 1 5 24 -22 53 -60 29 -38 57 -74
63 -81 5 -6 43 -57 84 -112 41 -56 79 -101 85 -101 8 0 11 75 11 252 l0 252
-28 7 c-20 6 -29 3 -35 -9z"/>
<path d="M6664 8677 c-111 -42 -113 -191 -4 -247 19 -9 53 -26 75 -36 81 -39
92 -130 18 -155 -31 -10 -48 -9 -105 3 -10 2 -21 7 -24 11 -13 12 -20 8 -32
-18 -17 -36 -15 -45 8 -45 11 0 20 -5 20 -11 0 -5 5 -7 10 -4 6 3 15 3 22 -1
7 -4 33 -7 58 -5 105 6 174 68 164 146 -6 54 -10 64 -35 91 -22 23 -96 64
-116 64 -17 0 -73 59 -73 77 1 77 45 95 163 67 16 -4 27 -2 27 4 0 6 3 18 6
26 13 35 -115 58 -182 33z"/>
<path d="M7191 8648 c-57 -127 -69 -158 -64 -158 3 0 1 -6 -5 -13 -19 -23
-130 -297 -121 -298 50 -7 63 -3 80 29 10 18 19 34 18 37 0 3 4 13 9 22 8 13
26 16 93 15 115 -1 119 -1 117 -9 -5 -21 27 -93 41 -94 42 -4 66 -1 64 7 -2
10 -159 409 -173 439 -5 11 -12 30 -15 43 -9 33 -23 27 -44 -20z m45 -156 c6
-23 15 -50 19 -60 3 -9 5 -17 4 -17 -1 0 6 -17 14 -37 9 -21 15 -39 14 -39 -6
-4 -143 -6 -149 -3 -5 3 21 82 57 169 4 11 7 24 6 28 -1 5 4 7 10 5 7 -2 18
-23 25 -46z"/>
<path d="M8154 8680 l-30 -5 1 -240 c1 -132 3 -245 3 -250 1 -7 31 -9 80 -7
97 4 110 6 145 20 16 7 30 12 33 12 11 0 68 58 81 84 22 42 27 72 27 157 -1
64 -5 84 -27 121 -30 52 -91 95 -144 104 -50 9 -130 10 -169 4z m114 -64 c59
-2 71 -6 99 -31 37 -34 51 -72 51 -146 0 -127 -61 -200 -168 -200 -22 -1 -44
5 -50 13 -3 3 -4 80 -4 170 2 211 2 210 15 203 5 -4 31 -8 57 -9z"/>
<path d="M8979 8682 c-20 -2 -38 -23 -88 -107 -35 -58 -66 -105 -70 -105 -6 0
-53 74 -84 133 -35 63 -49 77 -83 77 -37 0 -42 -10 -19 -34 8 -8 15 -19 15
-24 0 -5 9 -19 20 -32 11 -12 17 -26 15 -30 -3 -5 -1 -10 4 -12 5 -1 28 -34
52 -73 l43 -70 0 -108 c1 -110 7 -127 44 -121 6 1 17 2 22 3 6 1 10 49 10 121
0 68 4 120 9 120 5 0 13 10 17 23 4 12 10 24 13 27 4 3 26 39 51 80 24 41 50
81 57 88 14 15 17 39 6 44 -5 2 -20 2 -34 0z"/>
<path d="M2650 8643 c-1 -66 -1 -356 -1 -414 l1 -56 33 1 c41 1 46 9 37 57 -4
21 -4 39 -1 39 9 0 7 43 -2 57 -4 7 -4 14 1 17 5 3 7 22 6 43 l-2 38 64 -5
c36 -3 68 -2 73 3 5 5 11 4 15 -1 4 -7 17 -7 36 -2 19 6 32 5 36 -2 4 -6 8
-59 8 -117 1 -58 5 -111 9 -118 4 -6 20 -10 35 -9 l27 3 1 252 0 251 -36 0
-36 0 1 -100 c0 -55 -3 -100 -7 -101 -31 -4 -66 -1 -76 5 -7 4 -12 4 -12 -1 0
-4 -21 -7 -47 -6 -27 1 -58 2 -71 2 -15 1 -22 6 -19 14 2 6 1 21 -3 32 -4 11
-4 29 0 40 4 11 3 28 -2 38 -5 9 -5 17 -1 17 4 0 8 13 8 28 0 26 -4 29 -37 31
-38 2 -38 1 -38 -36z"/>
<path d="M3586 8663 c3 -10 9 -27 14 -38 19 -47 133 -399 134 -414 1 -16 20
-41 31 -41 5 0 24 39 30 63 2 4 4 9 5 12 1 3 4 10 5 15 1 6 3 11 5 13 1 1 3 9
5 17 4 17 62 187 71 210 6 13 7 13 11 0 3 -8 11 -28 19 -45 7 -16 20 -50 28
-75 57 -167 72 -205 85 -205 11 0 53 92 58 128 1 4 16 51 34 105 18 53 33 104
34 112 1 8 8 29 15 45 6 17 18 44 25 60 17 41 9 55 -29 55 -33 0 -33 -1 -61
-87 -15 -47 -29 -93 -30 -102 -2 -9 -4 -16 -5 -16 -1 0 -3 -7 -5 -15 -2 -8
-10 -35 -19 -59 -9 -24 -13 -47 -10 -52 3 -5 1 -9 -5 -9 -5 0 -35 77 -66 170
-34 101 -62 170 -69 170 -12 0 -89 -207 -101 -268 -2 -12 -7 -28 -12 -35 -4
-6 -8 -15 -8 -19 -1 -32 -25 -2 -30 37 -1 6 -4 17 -7 25 -3 8 -16 49 -28 90
-12 41 -25 84 -30 95 -5 11 -11 32 -14 48 -6 24 -11 27 -46 27 -33 0 -38 -3
-34 -17z"/>
<path d="M7568 8668 c-4 -11 -3 -471 1 -489 1 -8 43 -5 56 3 7 4 11 69 10 177
0 94 2 171 5 171 3 0 14 -13 23 -30 10 -16 23 -35 30 -42 7 -7 59 -75 115
-150 57 -76 108 -138 113 -138 11 0 10 -15 11 270 l1 235 -35 3 -35 3 1 -165
c1 -92 -2 -166 -5 -166 -4 0 -31 30 -61 68 -29 37 -56 69 -60 70 -5 2 -8 10
-8 17 0 7 -4 15 -8 17 -5 2 -34 38 -66 81 -56 74 -79 91 -88 65z"/>
<path d="M3518 7425 c-1 -1 -32 -6 -68 -9 -82 -8 -148 -16 -180 -22 -14 -3
-36 -7 -50 -9 -14 -2 -47 -8 -75 -15 -68 -15 -98 -21 -112 -22 -7 -1 -13 -5
-13 -10 0 -5 -5 -6 -10 -3 -6 4 -17 1 -25 -5 -8 -7 -15 -10 -15 -6 0 7 -169
-54 -254 -91 -233 -104 -459 -288 -554 -452 -14 -25 -29 -48 -32 -51 -19 -15
-89 -203 -106 -285 -11 -50 -27 -205 -26 -240 11 -202 30 -298 87 -440 25 -62
69 -150 78 -153 4 -2 7 -9 7 -16 0 -7 8 -21 18 -32 32 -36 82 -103 82 -109 0
-10 192 -198 235 -230 22 -17 49 -38 60 -48 11 -10 32 -26 48 -35 15 -9 27
-20 27 -24 0 -4 4 -8 10 -8 5 0 49 -27 98 -60 49 -33 94 -60 101 -60 6 0 11
-4 11 -10 0 -5 6 -10 14 -10 7 0 19 -7 26 -15 7 -9 15 -13 18 -11 3 3 17 -3
31 -13 14 -10 73 -42 131 -72 58 -30 107 -57 108 -61 2 -5 8 -8 13 -8 5 0 80
-34 167 -76 227 -111 343 -164 353 -164 5 0 9 -5 9 -11 0 -5 5 -7 10 -4 6 3
10 1 10 -4 0 -6 6 -11 13 -11 24 0 419 -206 425 -222 2 -4 7 -6 12 -3 4 3 13
-2 20 -10 7 -8 19 -15 26 -15 8 0 14 -4 14 -10 0 -5 5 -10 11 -10 13 0 167
-105 229 -157 152 -126 302 -320 325 -421 2 -9 12 -37 21 -62 21 -56 29 -264
14 -335 -21 -93 -61 -182 -105 -232 -45 -51 -110 -112 -133 -124 -15 -8 -33
-19 -40 -26 -7 -6 -28 -17 -47 -24 -19 -7 -35 -17 -35 -22 0 -4 -4 -6 -8 -3
-5 3 -21 -2 -36 -10 -35 -18 -195 -61 -261 -70 -27 -3 -59 -8 -70 -10 -11 -2
-47 -7 -80 -10 -33 -4 -63 -8 -67 -10 -4 -3 -9 0 -13 6 -4 6 -13 7 -23 1 -19
-9 -155 -8 -252 4 -187 21 -422 100 -553 187 -32 21 -61 38 -64 38 -10 0 -101
77 -163 140 -67 66 -160 188 -160 209 0 6 -4 11 -10 11 -5 0 -9 3 -8 8 1 4
-11 34 -26 66 -16 33 -29 65 -30 70 -10 56 -42 149 -55 155 -18 10 -315 7
-346 -2 -23 -8 -23 -2 -11 -597 3 -162 7 -346 8 -408 1 -78 5 -115 14 -123 17
-14 279 -8 294 7 6 6 13 18 14 25 14 78 29 129 41 139 10 9 26 5 67 -16 29
-15 58 -29 63 -30 6 -1 48 -17 95 -35 47 -17 103 -36 125 -41 22 -5 58 -13 80
-19 22 -6 52 -12 66 -14 15 -1 36 -6 47 -9 24 -8 102 -21 182 -30 82 -10 123
-16 131 -22 5 -3 9 0 9 6 0 6 5 8 12 4 13 -8 84 -15 173 -17 33 -1 63 -6 67
-12 5 -7 8 -6 8 1 0 11 57 10 87 -1 7 -2 15 0 18 4 3 5 20 5 39 1 19 -4 37 -6
39 -4 4 4 147 13 279 18 21 0 38 5 38 9 0 5 3 6 8 3 6 -3 134 16 150 23 4 2 6
2 32 8 39 7 55 11 55 13 0 1 11 4 25 7 38 7 55 11 58 13 1 2 5 3 10 5 4 1 14
5 22 8 8 3 45 17 81 31 84 30 177 74 184 87 4 5 13 9 20 9 15 0 107 59 113 73
2 4 10 7 18 7 8 0 14 4 14 8 0 4 12 15 28 24 34 20 153 138 190 187 15 20 29
38 32 41 12 12 60 87 71 113 7 15 17 27 22 27 6 0 7 3 4 7 -4 3 -1 16 6 27 26
40 85 225 93 291 2 16 6 53 10 80 7 51 7 229 0 275 -2 14 -7 48 -11 75 -19
132 -118 362 -191 448 -10 12 -26 33 -35 47 -9 14 -36 46 -61 73 -25 26 -44
47 -42 47 3 0 -47 47 -119 110 -15 14 -36 32 -45 40 -10 9 -58 45 -107 80 -50
36 -91 68 -93 73 -2 4 -7 7 -12 7 -4 0 -50 26 -102 59 -85 53 -120 74 -228
134 -19 10 -39 23 -45 28 -5 5 -17 9 -26 9 -10 0 -19 4 -21 9 -1 4 -93 54
-203 111 -110 56 -206 107 -212 112 -7 6 -13 7 -13 2 0 -5 -4 -4 -8 1 -4 6
-59 36 -122 69 -63 32 -122 64 -130 70 -8 6 -37 22 -65 36 -27 14 -51 28 -53
33 -2 4 -9 7 -17 7 -7 0 -18 7 -25 15 -7 8 -16 13 -20 10 -5 -3 -10 -2 -12 2
-4 11 -115 83 -127 83 -5 0 -11 7 -15 15 -3 8 -12 15 -20 15 -8 0 -16 4 -18 8
-1 5 -23 22 -48 39 -25 17 -55 41 -67 52 -12 12 -24 21 -27 21 -3 0 -38 33
-78 73 -163 163 -249 316 -276 493 -12 71 -7 210 9 264 7 25 14 54 16 65 4 20
55 116 76 142 57 71 196 175 235 176 6 0 12 4 12 8 0 5 16 11 35 15 19 3 35
11 35 17 0 6 3 8 6 4 3 -3 18 -1 32 4 37 14 146 36 223 46 82 10 439 10 504 0
28 -4 64 -9 82 -11 18 -3 40 -7 50 -10 10 -3 34 -7 53 -10 19 -3 62 -13 95
-22 33 -9 65 -17 72 -18 7 -1 16 -5 19 -9 4 -4 15 -7 24 -7 16 0 72 -20 160
-57 176 -74 345 -183 473 -303 48 -46 87 -86 87 -90 0 -5 12 -21 28 -38 35
-37 116 -176 131 -224 7 -20 17 -41 24 -46 7 -6 135 -10 325 -10 l312 0 49 98
c27 54 68 124 91 156 35 48 177 195 240 248 16 13 123 84 155 102 61 36 241
123 265 129 16 4 118 38 135 45 20 8 91 27 130 35 11 2 43 9 70 15 28 6 68 14
90 17 22 2 69 8 105 13 69 10 438 5 505 -5 176 -29 383 -104 442 -161 7 -7 23
-21 36 -31 37 -30 103 -115 125 -163 33 -71 54 -165 55 -254 1 -103 -8 -164
-39 -251 -13 -38 -25 -74 -26 -80 -2 -5 -5 -12 -8 -15 -3 -3 -16 -25 -29 -50
-73 -136 -209 -272 -438 -435 -52 -37 -214 -135 -223 -135 -6 0 -10 -4 -10
-10 0 -5 -6 -10 -14 -10 -8 0 -21 -6 -28 -12 -7 -7 -38 -25 -68 -41 -30 -15
-66 -33 -80 -41 -76 -44 -146 -80 -150 -79 -3 1 -18 -7 -35 -16 -69 -42 -225
-120 -225 -113 0 4 -4 2 -8 -4 -4 -5 -32 -23 -62 -38 -87 -45 -224 -118 -235
-126 -5 -4 -30 -19 -55 -32 -85 -47 -205 -122 -208 -130 -2 -4 -8 -8 -14 -8
-10 0 -91 -54 -116 -77 -7 -7 -16 -13 -20 -13 -4 0 -21 -13 -39 -28 -17 -15
-47 -38 -65 -52 -58 -43 -251 -243 -298 -308 -63 -88 -136 -231 -164 -324 -14
-43 -22 -78 -20 -78 3 0 0 -8 -5 -18 -22 -41 -32 -274 -17 -396 11 -94 33
-186 61 -262 14 -38 27 -73 28 -79 1 -5 8 -16 15 -23 7 -8 10 -18 7 -23 -4 -5
-1 -9 4 -9 6 0 11 -5 11 -11 0 -21 109 -173 167 -234 112 -118 212 -190 378
-273 83 -41 245 -103 305 -117 8 -2 47 -11 85 -21 39 -9 84 -18 100 -20 17 -1
41 -5 54 -8 31 -7 156 -19 204 -20 20 0 37 -4 37 -8 0 -4 10 -4 23 1 12 5 31
5 42 1 11 -4 31 -4 45 0 14 4 35 3 48 -1 13 -5 22 -4 22 1 0 6 9 6 24 0 13 -5
26 -6 29 -4 5 5 99 11 254 16 40 2 73 5 73 8 0 3 15 6 33 6 17 1 52 4 77 7 25
4 64 9 88 12 162 18 427 92 571 161 54 25 77 32 86 24 7 -6 18 -40 25 -77 18
-94 27 -101 144 -99 53 0 96 -1 96 -4 0 -3 18 -4 40 -2 49 5 57 18 55 92 -1
30 3 61 8 68 6 7 6 12 0 12 -9 0 -9 57 0 67 3 3 2 16 -3 29 -5 13 -6 24 -2 24
4 0 8 100 8 223 1 122 3 308 5 414 3 139 1 195 -8 204 -17 17 -335 22 -358 5
-9 -6 -24 -43 -34 -81 -10 -39 -28 -92 -39 -119 -12 -27 -22 -55 -22 -62 0 -8
-4 -14 -8 -14 -5 0 -14 -12 -21 -27 -34 -77 -143 -206 -246 -293 -95 -80 -260
-170 -401 -219 -70 -24 -212 -56 -299 -67 -120 -15 -383 -5 -491 20 -12 2 -39
7 -60 10 -175 28 -367 118 -464 220 -59 61 -80 85 -78 89 1 1 -6 13 -14 27
-23 36 -57 140 -65 202 -20 158 10 318 87 463 81 150 239 304 462 449 47 31
91 56 97 56 6 0 11 5 11 10 0 6 7 10 15 10 8 0 15 5 15 11 0 5 4 8 9 4 5 -3
12 -1 16 4 3 5 18 16 33 24 15 7 98 50 184 95 87 45 165 82 173 82 8 0 15 5
15 10 0 6 5 10 10 10 6 0 42 15 80 34 37 19 71 32 74 28 3 -3 6 0 6 6 0 7 5
12 10 12 6 0 60 24 120 54 61 30 110 51 110 48 0 -4 4 -2 8 3 4 6 63 38 132
73 69 34 153 78 188 97 34 19 62 32 62 30 0 -3 10 3 22 15 12 11 25 20 30 20
4 0 47 25 93 55 47 30 90 55 95 55 4 0 10 3 12 8 5 11 75 62 86 62 6 0 12 3
14 8 2 4 37 34 78 67 63 50 207 190 253 245 32 39 107 150 107 158 0 5 8 20
18 33 36 46 100 221 117 319 20 109 23 146 20 255 -3 140 -9 185 -37 280 -11
39 -21 75 -22 80 -1 6 -10 25 -19 43 -10 17 -15 32 -11 32 4 0 2 6 -4 13 -5 6
-22 35 -38 62 -58 105 -177 242 -269 310 -22 17 -42 32 -45 35 -14 14 -70 50
-79 50 -5 0 -11 4 -13 8 -4 11 -191 104 -263 131 -33 13 -69 27 -80 31 -46 19
-128 41 -133 36 -3 -3 -10 -2 -16 3 -7 6 -25 13 -41 16 -29 6 -45 9 -92 20
-13 3 -31 7 -40 9 -33 7 -130 20 -243 33 -138 15 -633 6 -725 -13 -11 -3 -45
-7 -75 -9 -30 -3 -66 -7 -80 -10 -62 -12 -97 -17 -125 -20 -16 -1 -30 -4 -30
-5 0 -1 -11 -3 -25 -6 -59 -10 -80 -14 -164 -34 -181 -41 -442 -127 -503 -166
-13 -8 -23 -12 -23 -9 0 2 -10 1 -23 -4 -31 -12 -42 4 -85 112 -19 51 -42 97
-51 102 -9 6 -118 10 -263 11 -284 1 -257 11 -298 -106 -24 -66 -47 -110 -64
-122 -10 -7 -25 -2 -96 30 -122 54 -365 131 -500 158 -14 3 -32 7 -41 10 -9 2
-32 7 -50 9 -19 3 -45 7 -59 10 -14 4 -38 8 -55 11 -16 2 -46 7 -65 10 -19 4
-53 8 -75 10 -38 4 -80 11 -80 14 0 0 -31 3 -70 6 -38 2 -88 7 -110 10 -43 6
-521 15 -527 9z"/>
</g>
</svg>
