<svg width="576" height="326" viewBox="0 0 576 326" fill="none" xmlns="http://www.w3.org/2000/svg">
<rect width="576" height="326" fill="white"/>
<path fill-rule="evenodd" clip-rule="evenodd" d="M205.092 197.403L210.262 197.318C210.631 197.312 210.881 197.54 211.011 197.886C212.789 207.487 222.986 213.004 232.58 212.497C240.084 212.142 248.538 209.914 248.371 200.866C248.191 191.158 237.647 186.136 226.473 180.814C213.883 174.818 200.495 168.441 200.238 154.552C199.94 138.429 216.956 133.159 230.383 133.518C245.658 133.962 253.988 138.35 253.988 138.35C254.839 138.891 255.255 137.65 255.662 136.436C255.851 135.874 256.037 135.318 256.264 134.947C256.383 134.713 256.627 134.593 256.996 134.587L260.565 134.528C260.65 134.527 260.728 134.538 260.798 134.559C260.869 134.538 260.947 134.527 261.031 134.528L264.6 134.587C264.969 134.593 265.213 134.713 265.332 134.947C265.559 135.318 265.746 135.874 265.934 136.436C266.341 137.65 266.757 138.891 267.609 138.35C267.609 138.35 275.938 133.962 291.213 133.518C304.64 133.159 321.656 138.429 321.358 154.552C321.101 168.441 307.713 174.818 295.123 180.814C283.95 186.136 273.405 191.158 273.226 200.866C273.059 209.914 281.512 212.142 289.016 212.497C298.61 213.004 308.807 207.487 310.585 197.886C310.715 197.54 310.965 197.312 311.334 197.318L316.504 197.403C316.873 197.409 317.115 197.645 317.108 197.993L316.774 216.088C316.768 216.436 316.517 216.664 316.148 216.658L312.21 216.593C311.84 216.587 311.596 216.467 311.48 216.117C311.364 215.811 311.278 215.38 311.191 214.952C311.014 214.074 310.839 213.204 310.421 213.431C310.421 213.431 304.188 217.621 288.432 217.477C275.137 217.374 262.21 210.663 262.485 195.816C262.723 182.878 275.178 176.469 286.982 170.395C297.615 164.923 307.719 159.724 307.894 150.269C308.072 140.642 298.62 139.093 291.354 139.206C279.776 139.479 269.454 145.11 266.345 153.413C266.216 153.759 266.091 153.873 265.721 153.866L260.797 153.785L255.875 153.866C255.505 153.872 255.38 153.759 255.251 153.413C252.143 145.11 241.82 139.479 230.242 139.206C222.976 139.093 213.524 140.642 213.702 150.269C213.877 159.724 223.981 164.923 234.614 170.395C246.418 176.469 258.873 182.878 259.112 195.816C259.386 210.663 246.459 217.374 233.164 217.477C217.408 217.621 211.175 213.431 211.175 213.431C210.757 213.204 210.582 214.074 210.405 214.952C210.318 215.38 210.232 215.811 210.116 216.117C210 216.467 209.756 216.587 209.387 216.593L205.448 216.658C205.079 216.664 204.828 216.436 204.822 216.088L204.488 197.993C204.481 197.645 204.723 197.409 205.092 197.403Z" fill="#004290"/>
<path fill-rule="evenodd" clip-rule="evenodd" d="M261.692 123.471C265.687 123.471 268.927 120.404 268.927 116.62C268.927 112.837 265.687 109.77 261.692 109.77C257.696 109.77 254.457 112.837 254.457 116.62C254.457 120.404 257.696 123.471 261.692 123.471Z" fill="#004290"/>
<path fill-rule="evenodd" clip-rule="evenodd" d="M203.659 120.544L204.105 119.48C204.334 119.638 204.618 119.77 204.958 119.876C205.298 119.982 205.602 120.035 205.871 120.035C206.348 120.035 206.731 119.912 207.02 119.665C207.309 119.418 207.454 119.104 207.454 118.722C207.454 118.436 207.373 118.171 207.213 117.926C207.052 117.681 206.647 117.414 206 117.125L205.279 116.807C204.668 116.537 204.241 116.216 203.999 115.846C203.756 115.476 203.635 115.03 203.635 114.51C203.635 113.877 203.871 113.352 204.344 112.936C204.816 112.519 205.423 112.311 206.165 112.311C207.154 112.311 207.843 112.463 208.23 112.768L207.869 113.775C207.706 113.663 207.458 113.555 207.124 113.451C206.79 113.347 206.48 113.295 206.195 113.295C205.78 113.295 205.453 113.406 205.214 113.63C204.976 113.854 204.857 114.141 204.857 114.492C204.857 114.708 204.9 114.905 204.985 115.082C205.071 115.26 205.19 115.408 205.343 115.528C205.496 115.647 205.808 115.815 206.281 116.031L207.014 116.361C207.625 116.635 208.054 116.962 208.3 117.342C208.547 117.722 208.67 118.205 208.67 118.791C208.67 119.428 208.4 119.968 207.86 120.411C207.32 120.855 206.598 121.076 205.694 121.076C204.9 121.076 204.222 120.899 203.659 120.544ZM216.224 120.932V116.836H212.313V120.932H211.091V112.456H212.313V115.852H216.224V112.456H217.446V120.932H216.224ZM225.372 120.932L224.755 119.144H221.425L220.765 120.932H219.397L223.032 112.34H223.356L226.729 120.932H225.372ZM223.136 114.562L221.749 118.294H224.407L223.136 114.562ZM234.46 121.048H234.075L231.943 115.204L229.951 121.048H229.566L226.743 112.456H228.014L229.81 118.375L231.778 112.456H232.205L234.149 118.363L235.975 112.456H237.246L234.46 121.048ZM245.039 121.048L240.413 114.851V120.932H239.252V112.456H239.741L244.244 118.317V112.456H245.405V121.048H245.039Z" fill="#004290"/>
<path fill-rule="evenodd" clip-rule="evenodd" d="M276.953 120.544L277.399 119.48C277.628 119.638 277.912 119.77 278.252 119.876C278.592 119.982 278.896 120.035 279.165 120.035C279.642 120.035 280.025 119.912 280.314 119.665C280.603 119.418 280.748 119.104 280.748 118.722C280.748 118.436 280.667 118.171 280.506 117.926C280.346 117.681 279.941 117.414 279.294 117.125L278.573 116.807C277.962 116.537 277.535 116.216 277.293 115.846C277.05 115.476 276.929 115.03 276.929 114.51C276.929 113.877 277.165 113.352 277.638 112.936C278.11 112.519 278.717 112.311 279.459 112.311C280.448 112.311 281.137 112.463 281.524 112.768L281.163 113.775C281 113.663 280.752 113.555 280.418 113.451C280.084 113.347 279.774 113.295 279.489 113.295C279.074 113.295 278.747 113.406 278.508 113.63C278.27 113.854 278.151 114.141 278.151 114.492C278.151 114.708 278.194 114.905 278.279 115.082C278.365 115.26 278.484 115.408 278.637 115.528C278.789 115.647 279.102 115.815 279.575 116.031L280.308 116.361C280.919 116.635 281.348 116.962 281.594 117.342C281.841 117.722 281.964 118.205 281.964 118.791C281.964 119.428 281.694 119.968 281.154 120.411C280.614 120.855 279.892 121.076 278.988 121.076C278.194 121.076 277.516 120.899 276.953 120.544ZM289.826 120.932L289.209 119.144H285.879L285.219 120.932H283.851L287.486 112.34H287.81L291.183 120.932H289.826ZM287.59 114.562L286.203 118.294H288.861L287.59 114.562ZM299.278 121.048L294.652 114.851V120.932H293.491V112.456H293.98L298.483 118.317V112.456H299.644V121.048H299.278ZM304.647 120.932H302.845V112.456C303.994 112.417 304.729 112.398 305.051 112.398C306.301 112.398 307.291 112.757 308.02 113.477C308.749 114.196 309.114 115.154 309.114 116.349C309.114 119.404 307.625 120.932 304.647 120.932ZM304.067 113.497V119.833C304.34 119.871 304.678 119.89 305.081 119.89C305.937 119.89 306.609 119.587 307.098 118.979C307.586 118.372 307.831 117.528 307.831 116.448C307.831 114.442 306.88 113.439 304.977 113.439C304.863 113.439 304.56 113.459 304.067 113.497ZM315.156 117.136V120.932H313.934V117.136L311.05 112.456H312.308L314.539 116.159L316.769 112.456H318.027L315.156 117.136Z" fill="#004290"/>
<path fill-rule="evenodd" clip-rule="evenodd" d="M44.6931 212.706V215.947C44.6931 216.295 44.938 216.526 45.3054 216.526H77.5094C102.122 216.526 120.122 202.289 120.122 175.9C120.122 149.741 102.244 135.505 77.6319 135.505H45.3054C44.938 135.505 44.6931 135.736 44.6931 136.083V139.209C44.6931 139.556 44.938 139.787 45.3054 139.787L54.489 140.482L54.489 211.549L45.3054 212.128C44.938 212.128 44.6931 212.359 44.6931 212.706ZM104.938 175.9C104.938 195.345 99.3054 211.433 77.5095 211.433H66.4891L66.4891 140.598H78.734C101.142 140.598 104.938 160.39 104.938 175.9ZM125.999 212.706V215.947C125.999 216.295 126.244 216.526 126.611 216.526L186.856 216.526C187.224 216.526 187.469 216.295 187.469 215.947V202.289C187.469 201.942 187.224 201.711 186.856 201.711H183.06C182.693 201.711 182.448 201.942 182.326 202.289L180.856 211.433H147.673V177.289H173.02L174.489 184.928C174.611 185.391 174.856 185.506 175.224 185.506H178.53C178.897 185.506 179.142 185.275 179.142 184.928V164.788C179.142 164.441 178.897 164.209 178.53 164.209H174.979C174.611 164.209 174.367 164.441 174.244 164.788L173.265 171.849H147.673V140.598H180.856L182.081 149.741C182.203 150.089 182.448 150.32 182.816 150.32H186.856C187.224 150.32 187.469 150.089 187.469 149.741V136.083C187.469 135.736 187.224 135.505 186.856 135.505L126.611 135.505C126.244 135.505 125.999 135.736 125.999 136.083V139.209C125.999 139.556 126.244 139.787 126.611 139.787L135.795 140.482V211.549L126.611 212.128C126.244 212.128 125.999 212.359 125.999 212.706Z" fill="#DCECFF"/>
<path fill-rule="evenodd" clip-rule="evenodd" d="M331.953 136.083V139.209C331.953 139.556 332.198 139.787 332.565 139.787L341.871 140.482V211.549L332.565 212.128C332.198 212.128 331.953 212.359 331.953 212.706V215.947C331.953 216.295 332.198 216.526 332.565 216.526H363.422C363.789 216.526 364.034 216.295 364.034 215.947V212.706C364.034 212.359 363.789 212.128 363.422 212.128L353.871 211.549V140.598L363.422 139.787C363.789 139.787 364.034 139.556 364.034 139.209V136.083C364.034 135.736 363.789 135.505 363.422 135.505H332.565C332.198 135.505 331.953 135.736 331.953 136.083ZM433.34 154.718H438.483C438.851 154.718 439.096 154.487 439.096 154.14V136.084C439.096 135.736 438.851 135.505 438.483 135.505H434.565C434.198 135.505 433.953 135.621 433.83 135.968L432.606 138.514C432.606 138.514 427.096 134.926 411.912 134.232C386.932 133.074 371.014 150.089 371.014 176.131C371.014 202.405 388.157 217.915 412.891 217.915C421.953 217.915 431.381 216.063 439.096 210.97C439.34 210.855 439.463 210.623 439.463 210.276V183.886C439.463 183.539 439.218 183.307 438.851 183.307H417.912C417.545 183.307 417.3 183.539 417.3 183.886V188.284C417.3 188.632 417.545 188.863 417.912 188.863L428.32 189.673L431.014 207.498C426.361 210.739 419.626 212.706 412.891 212.706C392.442 212.706 385.218 195.461 385.218 176.131C385.218 156.686 391.096 138.63 413.014 139.44C422.442 139.787 431.014 146.269 432.606 154.14C432.728 154.487 432.973 154.718 433.34 154.718ZM454.157 212.706V215.947C454.157 216.295 454.402 216.526 454.769 216.526L479.014 216.526C479.381 216.526 479.626 216.295 479.626 215.947V212.706C479.626 212.359 479.381 212.128 479.014 212.128L469.953 211.202V141.061L520.157 216.179C520.279 216.41 520.524 216.526 520.891 216.526H524.565C524.932 216.526 525.177 216.295 525.177 215.947V140.598L533.381 139.787C533.749 139.787 533.994 139.556 533.994 139.209V136.083C533.994 135.736 533.749 135.505 533.381 135.505H511.585C511.218 135.505 510.973 135.736 510.973 136.083V139.209C510.973 139.556 511.218 139.787 511.585 139.787L519.789 140.598V192.451L480.606 135.852C480.483 135.621 480.238 135.505 479.871 135.505H454.769C454.402 135.505 454.157 135.736 454.157 136.083V139.209C454.157 139.556 454.402 139.787 454.769 139.787L464.565 140.482V211.086L454.769 212.128C454.402 212.128 454.157 212.359 454.157 212.706Z" fill="#DCECFF"/>
<path fill-rule="evenodd" clip-rule="evenodd" d="M57.9788 42.8188L55.8474 51H54.573L52.4709 44.6938L50.3835 51H49.1165L46.9631 42.8188H48.3987L49.9001 49.1543L51.9436 42.8188H53.0789L55.1736 49.1543L56.5945 42.8188H57.9788ZM84.9709 42.8188L82.8395 51H81.5651L79.4631 44.6938L77.3757 51H76.1086L73.9552 42.8188H75.3908L76.8923 49.1543L78.9357 42.8188H80.071L82.1657 49.1543L83.5866 42.8188H84.9709ZM111.963 42.8188L109.831 51H108.557L106.455 44.6938L104.368 51H103.101L100.947 42.8188H102.383L103.884 49.1543L105.928 42.8188H107.063L109.158 49.1543L110.579 42.8188H111.963ZM130.4 51H128.65V48.9126H130.4V51ZM154.17 48.6416C154.17 49.3887 153.861 50.0015 153.243 50.48C152.626 50.9585 151.782 51.1978 150.713 51.1978C150.107 51.1978 149.552 51.1257 149.046 50.9817C148.541 50.8376 148.117 50.6802 147.776 50.5093V48.9639H147.849C148.283 49.291 148.767 49.551 149.299 49.7439C149.831 49.9368 150.342 50.0332 150.83 50.0332C151.435 50.0332 151.909 49.9355 152.251 49.7402C152.593 49.5449 152.763 49.2373 152.763 48.8174C152.763 48.4951 152.671 48.251 152.485 48.085C152.3 47.9189 151.943 47.7773 151.416 47.6602C151.22 47.6162 150.965 47.5649 150.65 47.5063C150.335 47.4478 150.049 47.3843 149.79 47.3159C149.072 47.1255 148.563 46.8459 148.263 46.4773C147.962 46.1086 147.812 45.6558 147.812 45.1187C147.812 44.7817 147.882 44.4644 148.021 44.1665C148.16 43.8687 148.371 43.6025 148.655 43.3682C148.928 43.1387 149.276 42.9568 149.698 42.8225C150.121 42.6882 150.593 42.6211 151.115 42.6211C151.604 42.6211 152.098 42.6809 152.599 42.8005C153.099 42.9202 153.515 43.0654 153.847 43.2363V44.7085H153.774C153.423 44.4497 152.995 44.2312 152.492 44.053C151.99 43.8748 151.496 43.7856 151.013 43.7856C150.51 43.7856 150.085 43.8821 149.739 44.075C149.392 44.2678 149.219 44.5547 149.219 44.9355C149.219 45.2725 149.324 45.5264 149.533 45.6973C149.739 45.8682 150.071 46.0073 150.53 46.1147C150.783 46.1733 151.068 46.2319 151.383 46.2905C151.698 46.3491 151.96 46.4028 152.17 46.4517C152.81 46.5981 153.303 46.8496 153.65 47.2061C153.996 47.5674 154.17 48.0459 154.17 48.6416ZM177.697 51H176.32V46.3418C176.32 45.9658 176.298 45.613 176.254 45.2834C176.21 44.9539 176.13 44.6963 176.013 44.5107C175.891 44.3057 175.715 44.1531 175.485 44.053C175.256 43.9529 174.958 43.9028 174.592 43.9028C174.216 43.9028 173.823 43.9956 173.413 44.1812C173.002 44.3667 172.609 44.6035 172.233 44.8916V51H170.856V39.6035H172.233V43.7271C172.663 43.3706 173.107 43.0923 173.566 42.8921C174.025 42.6919 174.497 42.5918 174.98 42.5918C175.864 42.5918 176.538 42.8579 177.001 43.3901C177.465 43.9224 177.697 44.689 177.697 45.6899V51ZM201.423 51H200.053V50.1284C199.931 50.2114 199.766 50.3274 199.559 50.4763C199.351 50.6252 199.15 50.7437 198.955 50.8315C198.725 50.9438 198.461 51.0378 198.164 51.1135C197.866 51.1892 197.517 51.2271 197.116 51.2271C196.379 51.2271 195.754 50.9829 195.241 50.4946C194.728 50.0063 194.472 49.3838 194.472 48.627C194.472 48.0068 194.605 47.5051 194.871 47.1218C195.137 46.7385 195.517 46.437 196.01 46.2173C196.508 45.9976 197.106 45.8486 197.805 45.7705C198.503 45.6924 199.252 45.6338 200.053 45.5947V45.3823C200.053 45.0698 199.998 44.811 199.888 44.606C199.779 44.4009 199.621 44.2397 199.416 44.1226C199.221 44.0103 198.986 43.9346 198.713 43.8955C198.439 43.8564 198.154 43.8369 197.856 43.8369C197.495 43.8369 197.092 43.8845 196.647 43.9797C196.203 44.075 195.744 44.2129 195.27 44.3936H195.197V42.9946C195.466 42.9214 195.854 42.8408 196.362 42.7529C196.87 42.665 197.37 42.6211 197.863 42.6211C198.439 42.6211 198.941 42.6687 199.368 42.7639C199.796 42.8591 200.165 43.0215 200.478 43.251C200.786 43.4756 201.02 43.7661 201.181 44.1226C201.342 44.479 201.423 44.9209 201.423 45.4482V51ZM200.053 48.9858V46.708C199.633 46.7324 199.139 46.769 198.57 46.8179C198.001 46.8667 197.551 46.9375 197.219 47.0303C196.823 47.1426 196.503 47.3171 196.259 47.554C196.015 47.7908 195.893 48.1167 195.893 48.5317C195.893 49.0005 196.035 49.3533 196.318 49.5901C196.601 49.8269 197.033 49.9453 197.614 49.9453C198.098 49.9453 198.539 49.8513 198.94 49.6633C199.34 49.4753 199.711 49.2495 200.053 48.9858ZM229.008 42.8188L226.877 51H225.602L223.5 44.6938L221.413 51H220.146L217.993 42.8188H219.428L220.93 49.1543L222.973 42.8188H224.108L226.203 49.1543L227.624 42.8188H229.008ZM252.55 51H251.173V46.3418C251.173 45.9658 251.151 45.613 251.108 45.2834C251.064 44.9539 250.983 44.6963 250.866 44.5107C250.744 44.3057 250.568 44.1531 250.338 44.053C250.109 43.9529 249.811 43.9028 249.445 43.9028C249.069 43.9028 248.676 43.9956 248.266 44.1812C247.856 44.3667 247.463 44.6035 247.087 44.8916V51H245.71V42.8188H247.087V43.7271C247.516 43.3706 247.961 43.0923 248.42 42.8921C248.879 42.6919 249.35 42.5918 249.833 42.5918C250.717 42.5918 251.391 42.8579 251.855 43.3901C252.318 43.9224 252.55 44.689 252.55 45.6899V51ZM275.763 48.6416C275.763 49.3887 275.454 50.0015 274.837 50.48C274.219 50.9585 273.376 51.1978 272.306 51.1978C271.701 51.1978 271.145 51.1257 270.64 50.9817C270.135 50.8376 269.711 50.6802 269.369 50.5093V48.9639H269.442C269.877 49.291 270.36 49.551 270.893 49.7439C271.425 49.9368 271.935 50.0332 272.423 50.0332C273.029 50.0332 273.502 49.9355 273.844 49.7402C274.186 49.5449 274.357 49.2373 274.357 48.8174C274.357 48.4951 274.264 48.251 274.079 48.085C273.893 47.9189 273.537 47.7773 273.009 47.6602C272.814 47.6162 272.559 47.5649 272.244 47.5063C271.929 47.4478 271.642 47.3843 271.383 47.3159C270.666 47.1255 270.157 46.8459 269.856 46.4773C269.556 46.1086 269.406 45.6558 269.406 45.1187C269.406 44.7817 269.475 44.4644 269.615 44.1665C269.754 43.8687 269.965 43.6025 270.248 43.3682C270.522 43.1387 270.869 42.9568 271.292 42.8225C271.714 42.6882 272.187 42.6211 272.709 42.6211C273.197 42.6211 273.692 42.6809 274.192 42.8005C274.693 42.9202 275.109 43.0654 275.441 43.2363V44.7085H275.368C275.016 44.4497 274.589 44.2312 274.086 44.053C273.583 43.8748 273.09 43.7856 272.606 43.7856C272.104 43.7856 271.679 43.8821 271.332 44.075C270.985 44.2678 270.812 44.5547 270.812 44.9355C270.812 45.2725 270.917 45.5264 271.127 45.6973C271.332 45.8682 271.664 46.0073 272.123 46.1147C272.377 46.1733 272.661 46.2319 272.976 46.2905C273.291 46.3491 273.554 46.4028 273.764 46.4517C274.403 46.5981 274.897 46.8496 275.243 47.2061C275.59 47.5674 275.763 48.0459 275.763 48.6416ZM298.808 51H297.438V50.1284C297.316 50.2114 297.151 50.3274 296.944 50.4763C296.736 50.6252 296.535 50.7437 296.339 50.8315C296.11 50.9438 295.846 51.0378 295.548 51.1135C295.25 51.1892 294.901 51.2271 294.501 51.2271C293.764 51.2271 293.139 50.9829 292.626 50.4946C292.113 50.0063 291.857 49.3838 291.857 48.627C291.857 48.0068 291.99 47.5051 292.256 47.1218C292.522 46.7385 292.902 46.437 293.395 46.2173C293.893 45.9976 294.491 45.8486 295.189 45.7705C295.888 45.6924 296.637 45.6338 297.438 45.5947V45.3823C297.438 45.0698 297.383 44.811 297.273 44.606C297.163 44.4009 297.006 44.2397 296.801 44.1226C296.605 44.0103 296.371 43.9346 296.098 43.8955C295.824 43.8564 295.539 43.8369 295.241 43.8369C294.879 43.8369 294.477 43.8845 294.032 43.9797C293.588 44.075 293.129 44.2129 292.655 44.3936H292.582V42.9946C292.851 42.9214 293.239 42.8408 293.747 42.7529C294.254 42.665 294.755 42.6211 295.248 42.6211C295.824 42.6211 296.326 42.6687 296.753 42.7639C297.18 42.8591 297.55 43.0215 297.863 43.251C298.17 43.4756 298.405 43.7661 298.566 44.1226C298.727 44.479 298.808 44.9209 298.808 45.4482V51ZM297.438 48.9858V46.708C297.018 46.7324 296.524 46.769 295.955 46.8179C295.386 46.8667 294.936 46.9375 294.603 47.0303C294.208 47.1426 293.888 47.3171 293.644 47.554C293.4 47.7908 293.278 48.1167 293.278 48.5317C293.278 49.0005 293.419 49.3533 293.703 49.5901C293.986 49.8269 294.418 49.9453 294.999 49.9453C295.482 49.9453 295.924 49.8513 296.325 49.6633C296.725 49.4753 297.096 49.2495 297.438 48.9858ZM323.016 51H321.639V46.3418C321.639 45.9658 321.617 45.613 321.573 45.2834C321.53 44.9539 321.449 44.6963 321.332 44.5107C321.21 44.3057 321.034 44.1531 320.804 44.053C320.575 43.9529 320.277 43.9028 319.911 43.9028C319.535 43.9028 319.142 43.9956 318.732 44.1812C318.322 44.3667 317.928 44.6035 317.552 44.8916V51H316.176V42.8188H317.552V43.7271C317.982 43.3706 318.426 43.0923 318.885 42.8921C319.344 42.6919 319.816 42.5918 320.299 42.5918C321.183 42.5918 321.857 42.8579 322.321 43.3901C322.784 43.9224 323.016 44.689 323.016 45.6899V51ZM347.02 51H345.643V50.1431C345.248 50.4849 344.835 50.751 344.405 50.9414C343.976 51.1318 343.509 51.2271 343.006 51.2271C342.03 51.2271 341.255 50.8511 340.681 50.0991C340.107 49.3472 339.82 48.3047 339.82 46.9717C339.82 46.2783 339.919 45.6606 340.117 45.1187C340.315 44.5767 340.582 44.1152 340.919 43.7344C341.251 43.3633 341.638 43.0801 342.08 42.8848C342.522 42.6895 342.98 42.5918 343.453 42.5918C343.883 42.5918 344.264 42.637 344.596 42.7273C344.928 42.8176 345.277 42.958 345.643 43.1484V39.6035H347.02V51ZM345.643 48.9858V44.291C345.272 44.125 344.94 44.0103 344.647 43.9468C344.354 43.8833 344.034 43.8516 343.688 43.8516C342.916 43.8516 342.316 44.1201 341.886 44.6572C341.456 45.1943 341.241 45.956 341.241 46.9424C341.241 47.9141 341.407 48.6526 341.739 49.158C342.071 49.6633 342.604 49.916 343.336 49.916C343.727 49.916 344.122 49.8293 344.523 49.656C344.923 49.4827 345.297 49.2593 345.643 48.9858ZM371.522 42.8188L366.747 54.0176H365.274L366.798 50.6045L363.539 42.8188H365.033L367.545 48.8833L370.079 42.8188H371.522ZM388.897 51H387.147V48.9126H388.897V51ZM413.458 51H412.081V50.1431C411.685 50.4849 411.273 50.751 410.843 50.9414C410.413 51.1318 409.947 51.2271 409.444 51.2271C408.467 51.2271 407.692 50.8511 407.119 50.0991C406.545 49.3472 406.258 48.3047 406.258 46.9717C406.258 46.2783 406.357 45.6606 406.555 45.1187C406.752 44.5767 407.02 44.1152 407.357 43.7344C407.689 43.3633 408.076 43.0801 408.518 42.8848C408.959 42.6895 409.417 42.5918 409.891 42.5918C410.321 42.5918 410.701 42.637 411.033 42.7273C411.365 42.8176 411.715 42.958 412.081 43.1484V39.6035H413.458V51ZM412.081 48.9858V44.291C411.71 44.125 411.378 44.0103 411.085 43.9468C410.792 43.8833 410.472 43.8516 410.125 43.8516C409.354 43.8516 408.753 44.1201 408.323 44.6572C407.894 45.1943 407.679 45.956 407.679 46.9424C407.679 47.9141 407.845 48.6526 408.177 49.158C408.509 49.6633 409.041 49.916 409.774 49.916C410.164 49.916 410.56 49.8293 410.96 49.656C411.361 49.4827 411.734 49.2593 412.081 48.9858ZM437.733 47.0522H431.705C431.705 47.5552 431.78 47.9934 431.932 48.3669C432.083 48.7405 432.291 49.0469 432.554 49.2861C432.808 49.5205 433.11 49.6963 433.459 49.8135C433.808 49.9307 434.193 49.9893 434.612 49.9893C435.169 49.9893 435.729 49.8782 436.293 49.656C436.857 49.4338 437.259 49.2153 437.498 49.0005H437.571V50.502C437.108 50.6973 436.634 50.8608 436.151 50.9927C435.667 51.1245 435.159 51.1904 434.627 51.1904C433.27 51.1904 432.21 50.823 431.448 50.0881C430.687 49.3533 430.306 48.3096 430.306 46.957C430.306 45.6191 430.671 44.5571 431.401 43.771C432.131 42.9849 433.091 42.5918 434.283 42.5918C435.386 42.5918 436.237 42.9141 436.835 43.5586C437.433 44.2031 437.733 45.1186 437.733 46.3052V47.0522ZM436.392 45.9976C436.387 45.2749 436.205 44.7158 435.847 44.3203C435.488 43.9248 434.942 43.7271 434.21 43.7271C433.472 43.7271 432.885 43.9443 432.448 44.3789C432.011 44.8135 431.763 45.353 431.705 45.9976H436.392ZM460.381 48.6416C460.381 49.3887 460.073 50.0015 459.455 50.48C458.837 50.9585 457.994 51.1978 456.924 51.1978C456.319 51.1978 455.763 51.1257 455.258 50.9817C454.753 50.8376 454.329 50.6802 453.987 50.5093V48.9639H454.061C454.495 49.291 454.979 49.551 455.511 49.7439C456.043 49.9368 456.553 50.0332 457.042 50.0332C457.647 50.0332 458.121 49.9355 458.462 49.7402C458.804 49.5449 458.975 49.2373 458.975 48.8174C458.975 48.4951 458.882 48.251 458.697 48.085C458.511 47.9189 458.155 47.7773 457.628 47.6602C457.432 47.6162 457.177 47.5649 456.862 47.5063C456.547 47.4478 456.26 47.3843 456.002 47.3159C455.284 47.1255 454.775 46.8459 454.474 46.4773C454.174 46.1086 454.024 45.6558 454.024 45.1187C454.024 44.7817 454.094 44.4644 454.233 44.1665C454.372 43.8687 454.583 43.6025 454.866 43.3682C455.14 43.1387 455.488 42.9568 455.91 42.8225C456.332 42.6882 456.805 42.6211 457.327 42.6211C457.815 42.6211 458.31 42.6809 458.81 42.8005C459.311 42.9202 459.727 43.0654 460.059 43.2363V44.7085H459.986C459.634 44.4497 459.207 44.2312 458.704 44.053C458.201 43.8748 457.708 43.7856 457.225 43.7856C456.722 43.7856 456.297 43.8821 455.95 44.075C455.604 44.2678 455.43 44.5547 455.43 44.9355C455.43 45.2725 455.535 45.5264 455.745 45.6973C455.95 45.8682 456.282 46.0073 456.741 46.1147C456.995 46.1733 457.28 46.2319 457.595 46.2905C457.909 46.3491 458.172 46.4028 458.382 46.4517C459.022 46.5981 459.515 46.8496 459.861 47.2061C460.208 47.5674 460.381 48.0459 460.381 48.6416ZM478.548 41.4492H476.995V40.021H478.548V41.4492ZM478.46 51H477.083V42.8188H478.46V51ZM502.537 50.0698C502.537 51.4565 502.222 52.4746 501.592 53.124C500.962 53.7734 499.993 54.0981 498.684 54.0981C498.25 54.0981 497.826 54.0676 497.414 54.0066C497.001 53.9456 496.594 53.8589 496.194 53.7466V52.3403H496.267C496.492 52.4282 496.848 52.5369 497.337 52.6663C497.825 52.7957 498.313 52.8604 498.801 52.8604C499.27 52.8604 499.658 52.8042 499.966 52.6919C500.274 52.5796 500.513 52.4233 500.684 52.2231C500.855 52.0327 500.977 51.8032 501.05 51.5347C501.123 51.2661 501.16 50.9658 501.16 50.6338V49.8867C500.745 50.2188 500.348 50.4666 499.97 50.6301C499.591 50.7937 499.109 50.8755 498.523 50.8755C497.547 50.8755 496.771 50.5227 496.198 49.8171C495.624 49.1116 495.337 48.1167 495.337 46.8325C495.337 46.1294 495.436 45.5227 495.634 45.0125C495.832 44.5022 496.101 44.0615 496.443 43.6904C496.76 43.3437 497.146 43.074 497.6 42.8811C498.054 42.6882 498.506 42.5918 498.955 42.5918C499.429 42.5918 499.826 42.6394 500.145 42.7346C500.465 42.8298 500.803 42.9751 501.16 43.1704L501.248 42.8188H502.537V50.0698ZM501.16 48.7515V44.291C500.794 44.125 500.453 44.0066 500.138 43.9358C499.823 43.865 499.509 43.8296 499.197 43.8296C498.44 43.8296 497.844 44.0835 497.41 44.5913C496.975 45.0991 496.758 45.8364 496.758 46.8032C496.758 47.7212 496.919 48.417 497.241 48.8906C497.564 49.3643 498.098 49.6011 498.845 49.6011C499.246 49.6011 499.647 49.5242 500.05 49.3704C500.453 49.2166 500.823 49.0103 501.16 48.7515ZM526.804 51H525.427V46.3418C525.427 45.9658 525.405 45.613 525.361 45.2834C525.318 44.9539 525.237 44.6963 525.12 44.5107C524.998 44.3057 524.822 44.1531 524.592 44.053C524.363 43.9529 524.065 43.9028 523.699 43.9028C523.323 43.9028 522.93 43.9956 522.52 44.1812C522.11 44.3667 521.716 44.6035 521.34 44.8916V51H519.964V42.8188H521.34V43.7271C521.77 43.3706 522.215 43.0923 522.673 42.8921C523.132 42.6919 523.604 42.5918 524.087 42.5918C524.971 42.5918 525.645 42.8579 526.109 43.3901C526.572 43.9224 526.804 44.689 526.804 45.6899V51Z" fill="#C2DEFF"/>
</svg>
