<svg width="141" height="122" viewBox="0 0 141 122" fill="none" xmlns="http://www.w3.org/2000/svg">
<path fill-rule="evenodd" clip-rule="evenodd" d="M28.624 86.0878L32.4803 86.0244C32.7558 86.0199 32.9426 86.1892 33.0392 86.4461C34.3654 93.5771 41.9727 97.6749 49.1296 97.2988C54.7272 97.0345 61.0337 95.3797 60.9091 88.6598C60.7754 81.4494 52.9091 77.7192 44.5738 73.7667C35.1817 69.313 25.1942 64.5769 25.0029 54.2613C24.7808 42.2862 37.4745 38.372 47.4905 38.6384C58.8853 38.9683 65.0994 42.2272 65.0994 42.2272C65.7346 42.629 66.0449 41.7077 66.3485 40.8062C66.4891 40.3888 66.6282 39.9756 66.7975 39.7001C66.8861 39.5263 67.0682 39.4371 67.3436 39.4326L70.0063 39.3888C70.0692 39.3878 70.1274 39.3958 70.18 39.4119C70.2325 39.3958 70.2907 39.3878 70.3535 39.3889L73.0162 39.4326C73.2916 39.4371 73.4737 39.5263 73.5623 39.7001C73.7316 39.9756 73.8707 40.3888 74.0113 40.8062C74.3149 41.7077 74.6252 42.6291 75.2605 42.2272C75.2605 42.2272 81.4745 38.9683 92.8693 38.6384C102.885 38.3721 115.579 42.2862 115.357 54.2614C115.166 64.5769 105.178 69.313 95.786 73.7667C87.4507 77.7193 79.5844 81.4494 79.4507 88.6598C79.3261 95.3797 85.6326 97.0345 91.2302 97.2988C98.3871 97.6749 105.994 93.5771 107.321 86.4461C107.417 86.1892 107.604 86.0199 107.879 86.0244L111.736 86.0878C112.011 86.0923 112.192 86.2676 112.187 86.5261L111.938 99.9658C111.933 100.224 111.746 100.394 111.471 100.389L108.532 100.341C108.257 100.336 108.075 100.247 107.988 99.9871C107.902 99.7597 107.837 99.4401 107.773 99.122C107.641 98.4695 107.51 97.8233 107.198 97.992C107.198 97.992 102.548 101.104 90.7943 100.997C80.8765 100.921 71.2334 95.9362 71.438 84.9087C71.6162 75.2997 80.9073 70.5395 89.7131 66.028C97.6448 61.9643 105.183 58.1023 105.313 51.0801C105.446 43.9295 98.395 42.7796 92.9746 42.8629C84.3375 43.0657 76.6369 47.2481 74.3182 53.4149C74.2216 53.6718 74.1282 53.7564 73.8527 53.7519L70.1793 53.6916L66.5071 53.7519C66.2316 53.7564 66.1382 53.6718 66.0416 53.4148C63.723 47.2481 56.0223 43.0657 47.3852 42.8629C41.9648 42.7795 34.9141 43.9295 35.0468 51.0801C35.177 58.1022 42.715 61.9643 50.6467 66.028C59.4526 70.5395 68.7436 75.2997 68.9218 84.9087C69.1264 95.9362 59.4833 100.921 49.5655 100.997C37.8114 101.104 33.1615 97.992 33.1615 97.992C32.8497 97.8233 32.719 98.4695 32.587 99.1219C32.5227 99.4401 32.458 99.7597 32.3719 99.9871C32.2849 100.247 32.1029 100.336 31.8274 100.341L28.8893 100.389C28.6138 100.394 28.427 100.224 28.4222 99.9658L28.1729 86.5261C28.1681 86.2676 28.3486 86.0923 28.624 86.0878Z" fill="#004290"/>
<path fill-rule="evenodd" clip-rule="evenodd" d="M70.8466 31.1764C73.8273 31.1764 76.2437 28.8983 76.2437 26.0882C76.2437 23.2781 73.8273 21 70.8466 21C67.8659 21 65.4496 23.2781 65.4496 26.0882C65.4496 28.8983 67.8659 31.1764 70.8466 31.1764Z" fill="#004290"/>
<path fill-rule="evenodd" clip-rule="evenodd" d="M27.555 29.0026L27.8878 28.2119C28.0579 28.3294 28.2699 28.4275 28.5236 28.5063C28.7774 28.585 29.0045 28.6244 29.2051 28.6244C29.5606 28.6244 29.8462 28.5328 30.062 28.3494C30.2778 28.1661 30.3856 27.9326 30.3856 27.649C30.3856 27.437 30.3256 27.24 30.2056 27.0581C30.0855 26.8762 29.784 26.6778 29.3008 26.4629L28.7629 26.2266C28.3071 26.026 27.9888 25.7882 27.808 25.5132C27.6272 25.2382 27.5368 24.9073 27.5368 24.5205C27.5368 24.0507 27.713 23.6611 28.0655 23.3517C28.418 23.0423 28.8708 22.8876 29.4239 22.8876C30.1623 22.8876 30.6758 23.0007 30.9645 23.2271L30.6956 23.9748C30.574 23.8917 30.3887 23.8115 30.1395 23.7341C29.8903 23.6568 29.6594 23.6181 29.4467 23.6181C29.1367 23.6181 28.8928 23.7012 28.7151 23.8674C28.5373 24.0335 28.4484 24.2469 28.4484 24.5076C28.4484 24.6681 28.4803 24.8142 28.5441 24.946C28.608 25.0778 28.6968 25.188 28.8108 25.2769C28.9248 25.3657 29.158 25.4903 29.5105 25.6507L30.0574 25.8957C30.5133 26.0991 30.8331 26.3419 31.0169 26.6241C31.2008 26.9062 31.2927 27.2651 31.2927 27.7005C31.2927 28.1732 31.0914 28.5743 30.6887 28.9038C30.2861 29.2332 29.7475 29.3979 29.0729 29.3979C28.4803 29.3979 27.9744 29.2662 27.555 29.0026V29.0026ZM36.9278 29.2905V26.248L34.0107 26.248V29.2905H33.099V22.995H34.0107L34.0107 25.5175L36.9278 25.5175V22.995H37.8395V29.2905H36.9278ZM43.7528 29.2905L43.2924 27.9627H40.8082L40.3159 29.2905H39.2949L42.007 22.9091H42.2486L44.7647 29.2905H43.7528ZM42.0844 24.5592L41.0497 27.331H43.0325L42.0844 24.5592ZM50.532 29.3765H50.2449L48.6541 25.0362L47.1681 29.3765H46.881L44.7751 22.995H45.7232L47.0633 27.3911L48.531 22.995H48.8501L50.2996 27.3825L51.6624 22.995H52.6105L50.532 29.3765ZM58.4235 29.3765L54.9731 24.7741V29.2905H54.107V22.995H54.4717L57.831 27.3481V22.995H58.697V29.3765H58.4235Z" fill="#004290"/>
<path fill-rule="evenodd" clip-rule="evenodd" d="M82.2316 29.0026L82.5643 28.2119C82.7345 28.3294 82.9464 28.4275 83.2002 28.5063C83.4539 28.585 83.681 28.6244 83.8816 28.6244C84.2371 28.6244 84.5228 28.5328 84.7385 28.3494C84.9543 28.1661 85.0621 27.9326 85.0621 27.649C85.0621 27.437 85.0021 27.24 84.8821 27.0581C84.7621 26.8762 84.4605 26.6778 83.9773 26.4629L83.4395 26.2266C82.9836 26.026 82.6653 25.7882 82.4845 25.5132C82.3037 25.2382 82.2133 24.9073 82.2133 24.5205C82.2133 24.0507 82.3896 23.6611 82.7421 23.3517C83.0946 23.0423 83.5473 22.8876 84.1004 22.8876C84.8388 22.8876 85.3523 23.0007 85.641 23.2271L85.3721 23.9748C85.2505 23.8917 85.0652 23.8115 84.816 23.7341C84.5668 23.6568 84.3359 23.6181 84.1232 23.6181C83.8132 23.6181 83.5694 23.7012 83.3916 23.8674C83.2138 24.0335 83.1249 24.2469 83.1249 24.5076C83.1249 24.6681 83.1568 24.8142 83.2207 24.946C83.2845 25.0778 83.3734 25.188 83.4873 25.2769C83.6013 25.3657 83.8345 25.4903 84.187 25.6507L84.734 25.8957C85.1898 26.0991 85.5096 26.3419 85.6934 26.6241C85.8773 26.9062 85.9692 27.2651 85.9692 27.7005C85.9692 28.1732 85.7679 28.5743 85.3653 28.9038C84.9626 29.2332 84.424 29.3979 83.7494 29.3979C83.1568 29.3979 82.6509 29.2662 82.2316 29.0026V29.0026ZM91.8347 29.2905L91.3743 27.9627L88.8901 27.9627L88.3979 29.2905H87.3768L90.0889 22.9091H90.3305L92.8466 29.2905H91.8347ZM90.1664 24.5592L89.1317 27.331H91.1145L90.1664 24.5592ZM98.8853 29.3765L95.4348 24.7741V29.2905H94.5687V22.995H94.9334L98.2927 27.3481V22.995H99.1587V29.3765H98.8853ZM102.891 29.2905L101.546 29.2905V22.995C102.403 22.9664 102.952 22.952 103.192 22.952C104.125 22.952 104.863 23.2192 105.407 23.7535C105.951 24.2878 106.223 24.999 106.223 25.8871C106.223 28.156 105.112 29.2905 102.891 29.2905V29.2905ZM102.458 23.7685V28.474C102.662 28.5027 102.914 28.517 103.215 28.517C103.853 28.517 104.354 28.2914 104.719 27.8402C105.083 27.389 105.266 26.7623 105.266 25.9601C105.266 24.4704 104.556 23.7255 103.137 23.7255C103.052 23.7255 102.826 23.7399 102.458 23.7685V23.7685ZM110.73 26.4715V29.2905H109.818V26.4715L107.667 22.995H108.606L110.27 25.7453L111.933 22.995H112.872L110.73 26.4715Z" fill="#004290"/>
</svg>
