<svg width="102" height="90" viewBox="0 0 102 90" fill="none" xmlns="http://www.w3.org/2000/svg">
<rect width="102" height="90" fill="#F2F2F2"/>
<rect width="1440" height="1024" transform="translate(-669 -26)" fill="white"/>
<path fill-rule="evenodd" clip-rule="evenodd" d="M4.07703 73.2238L8.41536 73.1525C8.72524 73.1474 8.93542 73.3379 9.04411 73.6269C10.5361 81.6493 19.0943 86.2593 27.1458 85.8362C33.4431 85.5388 40.538 83.6772 40.3978 76.1173C40.2473 68.0056 31.3977 63.8092 22.0206 59.3625C11.4545 54.3521 0.218474 49.024 0.00323385 37.419C-0.246635 23.947 14.0339 19.5436 25.3018 19.8432C38.121 20.2143 45.1118 23.8806 45.1118 23.8806C45.8264 24.3327 46.1755 23.2961 46.5171 22.282C46.6752 21.8124 46.8318 21.3476 47.0222 21.0376C47.1219 20.8421 47.3267 20.7418 47.6366 20.7367L50.6321 20.6875C50.7028 20.6863 50.7684 20.6953 50.8274 20.7134C50.8865 20.6953 50.952 20.6863 51.0227 20.6875L54.0182 20.7367C54.3281 20.7418 54.5329 20.8421 54.6326 21.0376C54.823 21.3476 54.9796 21.8124 55.1377 22.282C55.4793 23.2962 55.8284 24.3327 56.543 23.8806C56.543 23.8806 63.5338 20.2144 76.353 19.8432C87.6209 19.5436 101.901 23.947 101.652 37.4191C101.436 49.024 90.2004 54.3521 79.6342 59.3626C70.2571 63.8092 61.4075 68.0056 61.2571 76.1174C61.1168 83.6772 68.2117 85.5388 74.509 85.8362C82.5605 86.2593 91.1187 81.6493 92.6107 73.6269C92.7194 73.3379 92.9296 73.1474 93.2394 73.1525L97.5778 73.2238C97.8876 73.2289 98.0906 73.4261 98.0853 73.7169L97.8048 88.8365C97.7994 89.1273 97.5892 89.3177 97.2794 89.3127L93.974 89.2584C93.6641 89.2533 93.4593 89.1529 93.3614 88.8605C93.2645 88.6047 93.1918 88.2451 93.1194 87.8872C92.971 87.1532 92.8239 86.4263 92.4731 86.616C92.4731 86.616 87.2419 90.1173 74.0186 89.997C62.8611 89.9107 52.0126 84.3032 52.2427 71.8974C52.4432 61.0872 62.8957 55.732 72.8022 50.6565C81.7254 46.0848 90.2057 41.7401 90.3522 33.8402C90.5014 25.7957 82.5694 24.502 76.4715 24.5958C66.7547 24.8239 58.0915 29.5292 55.483 36.4667C55.3743 36.7558 55.2692 36.851 54.9593 36.8459L50.8268 36.778L46.6955 36.8459C46.3856 36.851 46.2805 36.7558 46.1718 36.4667C43.5633 29.5291 34.9001 24.8239 25.1833 24.5957C19.0854 24.502 11.1534 25.7957 11.3026 33.8401C11.4491 41.74 19.9294 46.0848 28.8526 50.6565C38.7591 55.732 49.2116 61.0872 49.4121 71.8973C49.6422 84.3032 38.7937 89.9106 27.6362 89.997C14.4129 90.1172 9.18169 86.616 9.18169 86.616C8.83088 86.4263 8.68384 87.1532 8.53537 87.8872C8.46298 88.2451 8.39025 88.6047 8.2934 88.8605C8.1955 89.1529 7.99071 89.2532 7.68083 89.2583L4.37544 89.3126C4.06556 89.3177 3.85537 89.1273 3.84998 88.8365L3.56955 73.7169C3.56416 73.4261 3.76715 73.2289 4.07703 73.2238Z" fill="#004290"/>
<path fill-rule="evenodd" clip-rule="evenodd" d="M51.5775 11.4484C54.9308 11.4484 57.6492 8.88562 57.6492 5.72422C57.6492 2.56282 54.9308 0 51.5775 0C48.2242 0 45.5058 2.56282 45.5058 5.72422C45.5058 8.88562 48.2242 11.4484 51.5775 11.4484Z" fill="#004290"/>
<path fill-rule="evenodd" clip-rule="evenodd" d="M2.87439 9.00293L3.24873 8.1134C3.44017 8.24554 3.67861 8.35592 3.96407 8.44456C4.24952 8.53319 4.50506 8.5775 4.73069 8.5775C5.13066 8.5775 5.45201 8.47437 5.69473 8.2681C5.93745 8.06183 6.05881 7.79916 6.05881 7.48009C6.05881 7.24159 5.99129 7.02001 5.85626 6.81535C5.72122 6.61069 5.38193 6.38751 4.83837 6.14578L4.23328 5.87989C3.72049 5.65428 3.3624 5.38678 3.15899 5.07737C2.95558 4.76797 2.85388 4.39572 2.85388 3.96062C2.85388 3.43205 3.05216 2.99373 3.44872 2.64565C3.84527 2.29757 4.35464 2.12354 4.97682 2.12354C5.80754 2.12354 6.38528 2.25084 6.71005 2.50546L6.4075 3.34665C6.27076 3.25318 6.06223 3.16294 5.7819 3.07592C5.50158 2.9889 5.24177 2.94539 5.00246 2.94539C4.65377 2.94539 4.37943 3.03885 4.17944 3.22579C3.97945 3.41272 3.87946 3.65283 3.87946 3.94612C3.87946 4.1266 3.91535 4.29097 3.98714 4.43923C4.05893 4.58748 4.15893 4.71157 4.28712 4.81148C4.41532 4.91139 4.6777 5.05159 5.07425 5.23208L5.6896 5.50764C6.20239 5.73647 6.56219 6.00961 6.76902 6.32707C6.97584 6.64454 7.07926 7.04821 7.07926 7.5381C7.07926 8.06989 6.85278 8.5211 6.39981 8.89174C5.94685 9.26238 5.34091 9.4477 4.58198 9.4477C3.91535 9.4477 3.34616 9.29945 2.87439 9.00293ZM13.4188 9.32684V5.90406L10.137 5.90406L10.137 9.32684H9.11139L9.11139 2.2444L10.137 2.2444V5.08221L13.4188 5.08221V2.2444H14.4444L14.4444 9.32684H13.4188ZM21.0968 9.32684L20.5789 7.833L17.7842 7.833L17.2304 9.32684H16.0818L19.1328 2.14771H19.4046L22.2352 9.32684H21.0968ZM19.22 4.00413L18.0559 7.12234L20.2866 7.12234L19.22 4.00413ZM28.7235 9.42353H28.4005L26.6108 4.54075L24.9391 9.42353H24.6161L22.247 2.2444H23.3136L24.8212 7.19002L26.4724 2.2444H26.8313L28.462 7.18035L29.9952 2.2444L31.0618 2.2444L28.7235 9.42353ZM37.6015 9.42353L33.7197 4.24585V9.32684H32.7454V2.2444L33.1556 2.2444L36.9348 7.14168V2.2444H37.9091V9.42353H37.6015Z" fill="#004290"/>
<path fill-rule="evenodd" clip-rule="evenodd" d="M64.3855 9.00293L64.7598 8.1134C64.9513 8.24554 65.1897 8.35592 65.4752 8.44456C65.7606 8.53319 66.0162 8.5775 66.2418 8.5775C66.6418 8.5775 66.9631 8.47437 67.2058 8.2681C67.4486 8.06183 67.5699 7.79916 67.5699 7.48009C67.5699 7.24159 67.5024 7.02001 67.3674 6.81535C67.2323 6.61069 66.893 6.38751 66.3495 6.14578L65.7444 5.87989C65.2316 5.65428 64.8735 5.38678 64.6701 5.07737C64.4667 4.76797 64.365 4.39572 64.365 3.96062C64.365 3.43205 64.5633 2.99373 64.9598 2.64565C65.3564 2.29757 65.8657 2.12354 66.4879 2.12354C67.3187 2.12354 67.8964 2.25084 68.2212 2.50546L67.9186 3.34665C67.7819 3.25318 67.5733 3.16294 67.293 3.07592C67.0127 2.9889 66.7529 2.94539 66.5136 2.94539C66.1649 2.94539 65.8905 3.03885 65.6905 3.22579C65.4906 3.41272 65.3906 3.65283 65.3906 3.94612C65.3906 4.1266 65.4265 4.29097 65.4983 4.43923C65.57 4.58748 65.67 4.71157 65.7982 4.81148C65.9264 4.91139 66.1888 5.05159 66.5854 5.23208L67.2007 5.50764C67.7135 5.73647 68.0733 6.00961 68.2801 6.32707C68.487 6.64454 68.5904 7.04821 68.5904 7.5381C68.5904 8.06989 68.3639 8.5211 67.9109 8.89174C67.458 9.26238 66.852 9.4477 66.0931 9.4477C65.4265 9.4477 64.8573 9.29945 64.3855 9.00293ZM75.189 9.32684L74.6711 7.833L71.8764 7.833L71.3226 9.32684H70.174L73.225 2.14771H73.4968L76.3274 9.32684H75.189ZM73.3122 4.00413L72.1482 7.12234L74.3788 7.12234L73.3122 4.00413ZM83.1209 9.42353L79.2391 4.24585V9.32684H78.2648V2.2444H78.675L82.4543 7.14168V2.2444H83.4286V9.42353H83.1209ZM87.6274 9.32684H86.1147V2.24439C87.0787 2.21216 87.6958 2.19605 87.9658 2.19605C89.0153 2.19605 89.846 2.49659 90.458 3.09767C91.0699 3.69876 91.3759 4.49885 91.3759 5.49797C91.3759 8.05056 90.1264 9.32684 87.6274 9.32684ZM87.1402 3.11459V8.4083C87.3692 8.44053 87.653 8.45664 87.9914 8.45664C88.7093 8.45664 89.2734 8.20284 89.6836 7.69522C90.0938 7.1876 90.2989 6.48259 90.2989 5.58015C90.2989 3.90421 89.5007 3.06625 87.9042 3.06625C87.8085 3.06625 87.5538 3.08236 87.1402 3.11459ZM96.4464 6.15545V9.32684H95.4208V6.15545L93.0004 2.2444H94.0568L95.9285 5.33843L97.8001 2.2444L98.8565 2.2444L96.4464 6.15545Z" fill="#004290"/>
</svg>
