<svg width="319" height="121" viewBox="0 0 319 121" fill="none" xmlns="http://www.w3.org/2000/svg">
<path fill-rule="evenodd" clip-rule="evenodd" d="M101.286 84.5347L105.011 84.473C105.277 84.4686 105.458 84.6334 105.551 84.8834C106.832 91.8232 114.181 95.811 121.095 95.445C126.503 95.1878 132.595 93.5774 132.475 87.0378C132.345 80.0208 124.746 76.3906 116.694 72.5441C107.621 68.2098 97.9726 63.6008 97.7878 53.562C97.5732 41.9081 109.836 38.0989 119.512 38.3581C130.52 38.6791 136.523 41.8506 136.523 41.8506C137.136 42.2417 137.436 41.345 137.729 40.4677C137.865 40.0615 138 39.6594 138.163 39.3913C138.249 39.2222 138.425 39.1354 138.691 39.131L141.263 39.0884C141.324 39.0874 141.38 39.0952 141.431 39.1108C141.481 39.0952 141.538 39.0874 141.598 39.0884L144.171 39.131C144.437 39.1354 144.612 39.2222 144.698 39.3913C144.862 39.6595 144.996 40.0615 145.132 40.4677C145.425 41.345 145.725 42.2417 146.339 41.8506C146.339 41.8506 152.342 38.6791 163.349 38.3581C173.025 38.0989 185.288 41.9081 185.073 53.562C184.888 63.6008 175.24 68.2099 166.167 72.5441C158.115 76.3907 150.516 80.0208 150.387 87.0378C150.266 93.5774 156.358 95.1878 161.766 95.445C168.68 95.811 176.029 91.8232 177.31 84.8835C177.403 84.6334 177.584 84.4687 177.85 84.4731L181.575 84.5347C181.841 84.5391 182.016 84.7097 182.011 84.9613L181.77 98.0404C181.765 98.292 181.585 98.4567 181.319 98.4523L178.481 98.4053C178.214 98.4009 178.039 98.3142 177.955 98.0612C177.871 97.8399 177.809 97.5288 177.747 97.2193C177.619 96.5843 177.493 95.9555 177.192 96.1196C177.192 96.1196 172.7 99.1483 161.345 99.0443C151.764 98.9696 142.448 94.1189 142.646 83.3873C142.818 74.036 151.794 69.4035 160.3 65.013C167.963 61.0583 175.245 57.2999 175.371 50.4661C175.499 43.5073 168.687 42.3882 163.451 42.4693C155.107 42.6666 147.668 46.7369 145.428 52.7382C145.335 52.9882 145.245 53.0706 144.979 53.0662L141.43 53.0075L137.882 53.0662C137.616 53.0706 137.526 52.9882 137.433 52.7382C135.193 46.7368 127.754 42.6666 119.41 42.4692C114.174 42.3882 107.362 43.5073 107.491 50.4661C107.616 57.2998 114.898 61.0583 122.561 65.013C131.068 69.4035 140.043 74.036 140.215 83.3873C140.413 94.1189 131.097 98.9696 121.516 99.0443C110.161 99.1483 105.669 96.1196 105.669 96.1196C105.368 95.9554 105.242 96.5843 105.114 97.2192C105.052 97.5288 104.99 97.8399 104.907 98.0612C104.823 98.3141 104.647 98.4009 104.381 98.4053L101.542 98.4523C101.276 98.4567 101.096 98.2919 101.091 98.0404L100.85 84.9612C100.846 84.7097 101.02 84.5391 101.286 84.5347Z" fill="#004290"/>
<path fill-rule="evenodd" clip-rule="evenodd" d="M142.075 31.0962C144.954 31.0962 147.288 28.8793 147.288 26.1445C147.288 23.4098 144.954 21.1928 142.075 21.1928C139.195 21.1928 136.861 23.4098 136.861 26.1445C136.861 28.8793 139.195 31.0962 142.075 31.0962Z" fill="#004290"/>
<path fill-rule="evenodd" clip-rule="evenodd" d="M100.253 28.9807L100.575 28.2112C100.739 28.3255 100.944 28.421 101.189 28.4977C101.434 28.5744 101.654 28.6127 101.847 28.6127C102.191 28.6127 102.467 28.5235 102.675 28.3451C102.884 28.1666 102.988 27.9394 102.988 27.6634C102.988 27.4571 102.93 27.2654 102.814 27.0884C102.698 26.9113 102.407 26.7183 101.94 26.5092L101.42 26.2791C100.98 26.084 100.672 25.8526 100.498 25.5849C100.323 25.3173 100.236 24.9953 100.236 24.6189C100.236 24.1617 100.406 23.7825 100.747 23.4814C101.087 23.1803 101.524 23.0297 102.059 23.0297C102.772 23.0297 103.268 23.1398 103.547 23.3601L103.287 24.0878C103.17 24.0069 102.991 23.9289 102.75 23.8536C102.509 23.7783 102.286 23.7407 102.081 23.7407C101.781 23.7407 101.546 23.8215 101.374 23.9832C101.202 24.1449 101.116 24.3526 101.116 24.6063C101.116 24.7625 101.147 24.9047 101.209 25.0329C101.27 25.1612 101.356 25.2685 101.466 25.3549C101.577 25.4413 101.802 25.5626 102.142 25.7188L102.671 25.9571C103.111 26.1551 103.42 26.3914 103.598 26.666C103.775 26.9406 103.864 27.2898 103.864 27.7136C103.864 28.1736 103.67 28.5639 103.281 28.8845C102.892 29.2052 102.371 29.3655 101.72 29.3655C101.147 29.3655 100.658 29.2372 100.253 28.9807V28.9807ZM109.308 29.2609V26.3001L106.49 26.3001V29.2609H105.609V23.1343H106.49V25.5891L109.308 25.5891V23.1343H110.188V29.2609H109.308ZM115.901 29.2609L115.456 27.9687H113.056L112.581 29.2609H111.595L114.214 23.0506H114.448L116.878 29.2609H115.901ZM114.289 24.6565L113.29 27.3539H115.205L114.289 24.6565ZM122.45 29.3446H122.173L120.636 25.1207L119.2 29.3446H118.923L116.889 23.1343H117.804L119.099 27.4125L120.517 23.1343H120.825L122.225 27.4041L123.542 23.1343H124.458L122.45 29.3446ZM130.073 29.3446L126.74 24.8656V29.2609H125.904V23.1343H126.256L129.501 27.3706V23.1343H130.338V29.3446H130.073Z" fill="#004290"/>
<path fill-rule="evenodd" clip-rule="evenodd" d="M153.073 28.9807L153.394 28.2112C153.559 28.3255 153.763 28.421 154.009 28.4977C154.254 28.5744 154.473 28.6127 154.667 28.6127C155.01 28.6127 155.286 28.5235 155.495 28.3451C155.703 28.1666 155.807 27.9394 155.807 27.6634C155.807 27.4571 155.749 27.2654 155.633 27.0884C155.517 26.9113 155.226 26.7183 154.759 26.5092L154.24 26.2791C153.799 26.084 153.492 25.8526 153.317 25.5849C153.143 25.3173 153.055 24.9953 153.055 24.6189C153.055 24.1617 153.226 23.7825 153.566 23.4814C153.907 23.1803 154.344 23.0297 154.878 23.0297C155.592 23.0297 156.088 23.1398 156.367 23.3601L156.107 24.0878C155.989 24.0069 155.81 23.9289 155.57 23.8536C155.329 23.7783 155.106 23.7407 154.9 23.7407C154.601 23.7407 154.365 23.8215 154.194 23.9832C154.022 24.1449 153.936 24.3526 153.936 24.6063C153.936 24.7625 153.967 24.9047 154.028 25.0329C154.09 25.1612 154.176 25.2685 154.286 25.3549C154.396 25.4413 154.621 25.5626 154.962 25.7188L155.49 25.9571C155.931 26.1551 156.24 26.3914 156.417 26.666C156.595 26.9406 156.684 27.2898 156.684 27.7136C156.684 28.1736 156.489 28.5639 156.1 28.8845C155.711 29.2052 155.191 29.3655 154.539 29.3655C153.967 29.3655 153.478 29.2372 153.073 28.9807V28.9807ZM162.35 29.2609L161.905 27.9687H159.505L159.03 29.2609H158.043L160.663 23.0506H160.897L163.327 29.2609H162.35ZM160.738 24.6565L159.739 27.3539H161.654L160.738 24.6565ZM169.161 29.3446L165.828 24.8656V29.2609H164.991V23.1343H165.343L168.589 27.3706V23.1343H169.425V29.3446H169.161ZM173.031 29.2609L171.732 29.2609V23.1343C172.56 23.1064 173.089 23.0925 173.321 23.0925C174.223 23.0925 174.936 23.3524 175.461 23.8724C175.987 24.3924 176.25 25.0845 176.25 25.9488C176.25 28.1569 175.177 29.2609 173.031 29.2609V29.2609ZM172.612 23.887V28.4663C172.809 28.4942 173.053 28.5081 173.343 28.5081C173.96 28.5081 174.444 28.2886 174.796 27.8495C175.149 27.4104 175.325 26.8005 175.325 26.0199C175.325 24.5701 174.639 23.8452 173.268 23.8452C173.186 23.8452 172.968 23.8592 172.612 23.887V23.887ZM180.604 26.5175V29.2609H179.723V26.5175L177.645 23.1343H178.552L180.159 25.8108L181.766 23.1343H182.673L180.604 26.5175Z" fill="#004290"/>
<path fill-rule="evenodd" clip-rule="evenodd" d="M0.681274 95.7277L0.681274 98.0721C0.681274 98.3232 0.84016 98.4907 1.07849 98.4907H21.972C37.94 98.4907 49.6181 88.1923 49.6181 69.1025C49.6181 50.1802 38.0195 39.8818 22.0514 39.8818L1.07849 39.8818C0.84016 39.8818 0.681274 40.0492 0.681274 40.3004L0.681274 42.561C0.681274 42.8122 0.84016 42.9797 1.07849 42.9797L7.03671 43.482L7.03671 94.8904L1.07849 95.3091C0.84016 95.3091 0.681274 95.4765 0.681274 95.7277V95.7277ZM39.7673 69.1025C39.7673 83.1686 36.1129 94.8067 21.972 94.8067H14.8222L14.8222 43.5658L22.7665 43.5658C37.3045 43.5658 39.7673 57.8831 39.7673 69.1025V69.1025ZM53.4313 95.7277V98.0721C53.4313 98.3233 53.5902 98.4907 53.8286 98.4907L92.9145 98.4907C93.1528 98.4907 93.3117 98.3233 93.3117 98.0721V88.1923C93.3117 87.9411 93.1528 87.7737 92.9145 87.7737H90.4518C90.2134 87.7737 90.0546 87.9411 89.9751 88.1923L89.0218 94.8067L67.4927 94.8067V70.1072L83.9374 70.1072L84.8908 75.6332C84.9702 75.9681 85.1291 76.0519 85.3674 76.0519H87.5124C87.7507 76.0519 87.9096 75.8844 87.9096 75.6332L87.9096 61.0647C87.9096 60.8135 87.7507 60.6461 87.5124 60.6461H85.2085C84.9702 60.6461 84.8113 60.8135 84.7319 61.0647L84.0963 66.1721L67.4927 66.1721V43.5658L89.0218 43.5658L89.8162 50.1802C89.8957 50.4314 90.0546 50.5988 90.2929 50.5988H92.9145C93.1528 50.5988 93.3117 50.4314 93.3117 50.1802V40.3004C93.3117 40.0492 93.1528 39.8818 92.9145 39.8818L53.8286 39.8818C53.5902 39.8818 53.4313 40.0492 53.4313 40.3004V42.5611C53.4313 42.8122 53.5902 42.9797 53.8286 42.9797L59.7868 43.482L59.7868 94.8904L53.8286 95.3091C53.5902 95.3091 53.4313 95.4765 53.4313 95.7277V95.7277Z" fill="#DCECFF"/>
<path fill-rule="evenodd" clip-rule="evenodd" d="M187.051 40.3004V42.561C187.051 42.8122 187.21 42.9797 187.448 42.9797L193.486 43.482V94.8904L187.448 95.3091C187.21 95.3091 187.051 95.4765 187.051 95.7277L187.051 98.0721C187.051 98.3232 187.21 98.4907 187.448 98.4907L207.468 98.4907C207.706 98.4907 207.865 98.3232 207.865 98.0721V95.7277C207.865 95.4765 207.706 95.3091 207.468 95.3091L201.271 94.8904V43.5658L207.468 42.9797C207.706 42.9797 207.865 42.8122 207.865 42.561V40.3004C207.865 40.0492 207.706 39.8818 207.468 39.8818L187.448 39.8818C187.21 39.8818 187.051 40.0492 187.051 40.3004V40.3004ZM252.829 53.7804H256.166C256.404 53.7804 256.563 53.613 256.563 53.3618V40.3004C256.563 40.0492 256.404 39.8817 256.166 39.8817H253.624C253.386 39.8817 253.227 39.9655 253.147 40.2167L252.353 42.0586C252.353 42.0586 248.778 39.4631 238.927 38.9607C222.721 38.1235 212.393 50.4313 212.393 69.2699C212.393 88.276 223.515 99.4954 239.563 99.4954C245.441 99.4954 251.558 98.1558 256.563 94.4718C256.722 94.388 256.802 94.2206 256.802 93.9694V74.8796C256.802 74.6285 256.643 74.461 256.404 74.461H242.82C242.581 74.461 242.422 74.6285 242.422 74.8796V78.0613C242.422 78.3125 242.581 78.4799 242.82 78.4799L249.572 79.066L251.32 91.96C248.301 94.3043 243.932 95.7277 239.563 95.7277C226.296 95.7277 221.608 83.2523 221.608 69.2699C221.608 55.2038 225.422 42.1424 239.642 42.7285C245.759 42.9796 251.32 47.6684 252.353 53.3618C252.432 53.613 252.591 53.7804 252.829 53.7804V53.7804ZM266.335 95.7277V98.0721C266.335 98.3232 266.494 98.4907 266.732 98.4907H282.462C282.7 98.4907 282.859 98.3232 282.859 98.0721V95.7277C282.859 95.4765 282.7 95.3091 282.462 95.3091L276.583 94.6393V43.9007L309.155 98.2395C309.234 98.407 309.393 98.4907 309.631 98.4907H312.015C312.253 98.4907 312.412 98.3232 312.412 98.0721V43.5658L317.734 42.9797C317.973 42.9797 318.132 42.8122 318.132 42.561V40.3004C318.132 40.0492 317.973 39.8818 317.734 39.8818H303.594C303.355 39.8818 303.196 40.0492 303.196 40.3004V42.561C303.196 42.8122 303.355 42.9797 303.594 42.9797L308.916 43.5658V81.0755L283.495 40.133C283.415 39.9655 283.256 39.8818 283.018 39.8818H266.732C266.494 39.8818 266.335 40.0492 266.335 40.3004V42.561C266.335 42.8122 266.494 42.9797 266.732 42.9797L273.088 43.482V94.5555L266.732 95.3091C266.494 95.3091 266.335 95.4765 266.335 95.7277V95.7277Z" fill="#DCECFF"/>
</svg>
